<svg width="15" height="15" viewBox="0 0 15 15" fill="none" xmlns="http://www.w3.org/2000/svg">
<path d="M14.707 0.999999C14.707 0.447715 14.2593 -5.74472e-07 13.707 -8.27353e-07L4.70703 -2.65626e-08C4.15475 -3.63737e-07 3.70703 0.447715 3.70703 1C3.70703 1.55228 4.15475 2 4.70703 2L12.707 2L12.707 10C12.707 10.5523 13.1547 11 13.707 11C14.2593 11 14.707 10.5523 14.707 10L14.707 0.999999ZM0.707031 14L1.41414 14.7071L14.4141 1.70711L13.707 1L12.9999 0.292893L-7.55191e-05 13.2929L0.707031 14Z" fill="black"/>
</svg>
